<?xml version="1.0" encoding="UTF-8" standalone="no"?>
<svg
   xmlns:dc="http://purl.org/dc/elements/1.1/"
   xmlns:cc="http://creativecommons.org/ns#"
   xmlns:rdf="http://www.w3.org/1999/02/22-rdf-syntax-ns#"
   xmlns:svg="http://www.w3.org/2000/svg"
   xmlns="http://www.w3.org/2000/svg"
   xmlns:sodipodi="http://sodipodi.sourceforge.net/DTD/sodipodi-0.dtd"
   xmlns:inkscape="http://www.inkscape.org/namespaces/inkscape"
   version="1.1"
   id="Layer_1"
   x="0px"
   y="0px"
   width="212.118px"
   height="65.883px"
   viewBox="0 0 212.118 65.883"
   enable-background="new 0 0 212.118 65.883"
   xml:space="preserve"
   sodipodi:docname="logo.svg"
   inkscape:version="0.92.4 (5da689c313, 2019-01-14)"><metadata
   id="metadata35"><rdf:RDF><cc:Work
       rdf:about=""><dc:format>image/svg+xml</dc:format><dc:type
         rdf:resource="http://purl.org/dc/dcmitype/StillImage" /></cc:Work></rdf:RDF></metadata><defs
   id="defs33" /><sodipodi:namedview
   pagecolor="#ffffff"
   bordercolor="#666666"
   borderopacity="1"
   objecttolerance="10"
   gridtolerance="10"
   guidetolerance="10"
   inkscape:pageopacity="0"
   inkscape:pageshadow="2"
   inkscape:window-width="1874"
   inkscape:window-height="1016"
   id="namedview31"
   showgrid="false"
   inkscape:zoom="6.2606663"
   inkscape:cx="44.82018"
   inkscape:cy="36.057234"
   inkscape:window-x="46"
   inkscape:window-y="27"
   inkscape:window-maximized="1"
   inkscape:current-layer="Layer_1"
   showguides="true"
   inkscape:guide-bbox="true"><sodipodi:guide
     position="127.6271,16.71576"
     orientation="0,1"
     id="guide1016"
     inkscape:locked="false" /></sodipodi:namedview>
<switch
   id="switch28">
	<g
   id="g26"
   transform="matrix(0.95000732,0,0,0.95000732,0.61417517,-3.1801003)">
		<g
   id="g14"
   transform="matrix(0.80560828,0,0,0.80560828,64.620121,16.463945)">
			<path
   d="M 50.751,48.727 V 12.472 h 7.251 v 17.547 c 1.885,-2.32 4.544,-3.094 7.299,-3.094 6.042,0 10.586,5.269 10.586,11.167 0,5.898 -4.543,11.118 -10.585,11.118 -2.755,0 -5.849,-0.87 -7.299,-3.046 v 2.562 h -7.252 z m 12.327,-5.318 c 2.9,0 5.076,-2.514 5.076,-5.317 0,-2.803 -2.175,-5.317 -5.076,-5.317 -2.901,0 -5.076,2.514 -5.076,5.317 0,2.803 2.176,5.317 5.076,5.317 z"
   id="path2"
   inkscape:connector-curvature="0"
   style="fill:#545454" />
			<path
   d="m 84.35,15.855 c 2.32,0 4.254,1.885 4.254,4.254 0,2.32 -1.934,4.254 -4.254,4.254 -2.369,0 -4.254,-1.934 -4.254,-4.254 0,-2.368 1.885,-4.254 4.254,-4.254 z M 80.724,48.727 V 27.409 h 7.251 v 21.318 z"
   id="path4"
   inkscape:connector-curvature="0"
   style="fill:#545454" />
			<path
   d="m 115.819,48.727 h -7.25 V 36.642 c 0,-2.514 -0.967,-3.867 -3.239,-3.867 -2.272,0 -4.061,2.417 -4.061,5.317 V 48.727 H 94.018 V 27.409 h 7.251 v 2.61 c 1.45,-1.837 3.722,-3.094 6.526,-3.094 5.704,0 8.024,3.916 8.024,9.716 z"
   id="path6"
   inkscape:connector-curvature="0"
   style="fill:#545454" />
			<path
   d="m 144.826,48.727 h -7.251 v -2.562 c -1.45,2.176 -4.592,3.046 -7.299,3.046 -6.043,0 -10.587,-5.221 -10.587,-11.118 0,-5.897 4.544,-11.167 10.587,-11.167 2.707,0 5.414,0.773 7.299,3.094 V 12.472 h 7.251 z M 132.499,32.774 c -2.9,0 -5.075,2.514 -5.075,5.317 0,2.803 2.175,5.317 5.075,5.317 2.9,0 5.076,-2.514 5.076,-5.317 0,-2.803 -2.176,-5.317 -5.076,-5.317 z"
   id="path8"
   inkscape:connector-curvature="0"
   style="fill:#545454" />
			<path
   d="m 173.639,38.962 h -16.532 c 0,2.466 1.74,5.075 4.592,5.075 2.562,0 4.158,-1.691 4.206,-3.238 h 7.396 c -1.256,5.607 -5.801,8.411 -11.456,8.411 -7.348,0 -12.423,-4.351 -12.423,-11.118 0,-6.671 5.269,-11.167 12.423,-11.167 6.478,0 11.843,3.867 11.843,10.683 -10e-4,0.435 -0.049,0.919 -0.049,1.354 z m -6.913,-3.432 c 0,0 -0.338,-3.964 -4.736,-3.964 -4.545,0 -4.786,3.964 -4.786,3.964 z"
   id="path10"
   inkscape:connector-curvature="0"
   style="fill:#545454" />
			<path
   d="m 185.532,38.092 v 10.635 h -7.251 V 27.409 h 7.251 v 2.61 c 1.111,-1.595 2.949,-3.094 5.607,-3.094 0.629,0 1.596,0.193 2.176,0.483 v 6.574 h -0.098 c -0.725,-0.87 -1.788,-1.208 -2.9,-1.208 -2.707,0 -4.785,2.756 -4.785,5.318 z"
   id="path12"
   inkscape:connector-curvature="0"
   style="fill:#545454" />
		</g>
		
		
		
		
		<g
   id="g1001"
   transform="matrix(0.50562078,0,0,0.50562078,3.9336326,19.296779)"><circle
     style="fill:none;stroke:#f5a252;stroke-width:3.54887557;stroke-miterlimit:10"
     id="circle16"
     r="7.0049586"
     cy="28.6654"
     cx="27.817081"
     stroke-miterlimit="10" /><circle
     style="fill:none;stroke:#579aca;stroke-width:3.54887557;stroke-miterlimit:10"
     id="circle18"
     r="7.005693"
     cy="42.290642"
     cx="27.817081"
     stroke-miterlimit="10" /><circle
     style="fill:none;stroke:#e66581;stroke-width:3.54887557;stroke-miterlimit:10"
     id="circle20"
     r="7.005693"
     cy="35.529411"
     cx="20.969219"
     stroke-miterlimit="10" /><path
     style="fill:none;stroke:#579aca;stroke-width:3.54887557;stroke-miterlimit:10"
     inkscape:connector-curvature="0"
     id="path22"
     d="m 22.176847,38.133326 c 0.557196,-0.756876 1.277366,-1.414646 2.14436,-1.913847 3.351986,-1.930731 7.635567,-0.778165 9.566299,2.574554"
     stroke-miterlimit="10" /><path
     style="fill:none;stroke:#f5a252;stroke-width:3.54887557;stroke-miterlimit:10"
     inkscape:connector-curvature="0"
     id="path24"
     d="m 21.746654,32.161272 c -1.930732,-3.351985 -0.7789,-7.635567 2.574553,-9.567032 3.35272,-1.930732 7.635567,-0.777432 9.566299,2.575287"
     stroke-miterlimit="10" /></g>
	</g>
<text
   xml:space="preserve"
   style="font-style:normal;font-weight:normal;font-size:28.77341652px;line-height:1.25;font-family:sans-serif;letter-spacing:0px;word-spacing:0px;fill:#000000;fill-opacity:1;stroke:none;stroke-width:0.71933538"
   x="31.514774"
   y="48.952839"
   id="text904"><tspan
     sodipodi:role="line"
     id="tspan902"
     x="31.514774"
     y="48.952839"
     style="font-style:normal;font-variant:normal;font-weight:normal;font-stretch:normal;font-family:'Comic Sans MS';-inkscape-font-specification:'Comic Sans MS';stroke-width:0.71933538">Easy</tspan></text>

<g
   aria-label="Easy"
   style="font-style:normal;font-weight:normal;font-size:40px;line-height:1.25;font-family:sans-serif;letter-spacing:0px;word-spacing:0px;fill:#000000;fill-opacity:1;stroke:none"
   id="text1005"
   transform="matrix(1.1069423,0,0,1.1069423,-37.517346,38.723508)"><path
     d="m 56.278465,-17.58847 c -0.182291,0 -0.384114,-0.03255 -0.605468,-0.09766 -2.200521,-0.625 -4.322917,-0.9375 -6.367188,-0.9375 -1.067708,0 -2.233073,0.09766 -3.496094,0.292969 -1.263021,0.195313 -2.623698,0.494792 -4.082031,0.898438 0.117187,0.846354 0.175781,1.523437 0.175781,2.03125 0,1.809895 -0.110677,4.296874 -0.332031,7.460937 -0.226746,2.4364375 -0.259365,3.1236519 -0.253906,4.0234375 -0.05209,0.9244792 -0.09766,1.8033855 -0.136719,2.6367188 -0.02604,0.82031249 -0.03906,1.58854166 -0.03906,2.3046875 0,2.8776041 0.208333,4.5703125 0.625,5.078125 0.3125,0.3645833 1.334635,0.546875 3.066406,0.546875 0.807291,0 2.018229,-0.019531 3.632812,-0.058594 1.627605,-0.052083 2.851563,-0.078125 3.671875,-0.078125 0.260417,0 0.644531,-0.039063 1.152344,-0.1171875 0.507813,-0.091146 0.885417,-0.1367187 1.132813,-0.1367187 1.380208,0 2.070312,0.6770833 2.070312,2.03125 0,1.09375 -0.553385,1.7513024 -1.660156,1.9726564 -1.223959,0.247396 -3.873698,0.371094 -7.949219,0.371094 -4.036458,0 -6.627604,-0.533854 -7.773437,-1.6015629 -1.25,-1.1588542 -1.875,-3.828125 -1.875,-8.0078125 0,-0.83333334 0.01953,-1.74479167 0.05859,-2.734375 0.209304,-3.0223024 0.18324,-4.3348273 0.3125,-5.3515625 0.260417,-3.7630211 0.390625,-6.5429691 0.390625,-8.3398431 0,-0.481772 -0.0651,-1.184897 -0.195312,-2.109375 -0.130209,-0.9375 -0.195313,-1.647136 -0.195313,-2.128907 0,-1.549479 0.651042,-2.324218 1.953125,-2.324218 0.546875,0 1.015625,0.188802 1.40625,0.566406 1.5625,-0.416667 3.033854,-0.729167 4.414063,-0.9375 1.393229,-0.208334 2.701823,-0.3125 3.925781,-0.3125 3.164063,0 5.690104,0.377604 7.578125,1.132812 0.872396,0.351562 1.308594,0.976562 1.308594,1.875 0,0.520833 -0.169271,0.983073 -0.507813,1.386719 -0.377604,0.442708 -0.846354,0.664063 -1.40625,0.664063 z"
     style="font-style:normal;font-variant:normal;font-weight:normal;font-stretch:normal;font-family:'Comic Sans MS';-inkscape-font-specification:'Comic Sans MS'"
     id="path1007"
     inkscape:connector-curvature="0"
     sodipodi:nodetypes="ccsscscccscscscsscscsccscssccscsccc" /><path
     d="m 77.469872,9.9896545 q -0.371094,0 -1.347657,-0.859375 -0.878906,-0.8007812 -1.308593,-1.4257812 -1.875,1.015625 -3.300782,1.5234375 -1.425781,0.5273437 -2.382812,0.5273437 -4.570313,0 -6.660156,-2.578125 -1.972657,-2.421875 -1.972657,-7.42187496 0,-4.72656254 3.242188,-8.08593754 3.261719,-3.359375 7.773437,-3.359375 1.699219,0 3.808594,0.878906 2.65625,1.0937503 2.65625,2.636719 0,0.5273438 -0.390625,0.9375 -0.195312,0.7421875 -0.3125,2.4414063 -0.09766,1.6992187 -0.117187,4.35546874 -0.01953,2.42187496 0.332031,3.82812496 0.195312,0.859375 1.230469,3.4375 0.136718,0.3515625 0.449218,1.0351563 l 0.117188,0.3320312 q 0,0.78125 -0.546875,1.2890625 -0.546875,0.5078125 -1.269531,0.5078125 z m -4.0625,-13.5742187 q 0,-0.8398438 0.09766,-1.8164063 0.117187,-0.9960937 0.332031,-2.109375 -0.722656,-0.3710937 -1.25,-0.546875 -0.507812,-0.1757812 -0.820312,-0.1757812 -3.027344,0 -5.234375,2.4804687 -2.1875,2.4609375 -2.1875,5.68359379 0,3.20312501 1.132812,4.80468751 1.132813,1.6015625 3.398438,1.6015625 1.875,0 3.183593,-0.6835938 0.703125,-0.3710937 1.972657,-1.484375 -0.625,-5.1757812 -0.625,-7.7539062 z"
     style="font-style:normal;font-variant:normal;font-weight:normal;font-stretch:normal;font-family:'Comic Sans MS';-inkscape-font-specification:'Comic Sans MS'"
     id="path1009"
     inkscape:connector-curvature="0" /><path
     d="m 95.868309,-6.3384705 q -1.074219,0 -1.503906,-0.7226562 -0.292969,-0.5078125 -0.507813,-2.109375 -1.464843,0.3710937 -4.511718,1.3671875 -3.144532,1.25 -3.164063,3.0859375 0.585938,0.2148437 1.152344,0.3125 4.492187,0.8007812 6.679687,2.2070312 3.183594,2.05078129 3.183594,5.9375 0,3.1835938 -2.753906,4.8046875 -2.285156,1.328125 -5.78125,1.328125 -2.558594,0 -4.882813,-0.859375 -3.007812,-1.09375 -3.007812,-3.046875 0,-0.78125 0.605469,-1.3671875 0.625,-0.5859375 1.40625,-0.5859375 0.605468,0 1.5625,0.9375 0.46875,0.4492188 2.109375,0.7421875 1.308593,0.234375 2.207031,0.234375 1.640625,0 2.890625,-0.390625 1.816406,-0.5664062 1.816406,-1.796875 0,-2.65625 -3.710937,-3.59374996 l -2.03125,-0.44921875 q -2.597657,-0.56640625 -3.691407,-1.32812499 -1.582031,-1.09375 -1.582031,-3.3007813 0,-4.0820312 3.847656,-5.8203125 1.171875,-0.527344 3.75,-1.25 2.578125,-0.742187 3.691407,-1.25 0.800781,-0.351562 1.738281,-0.351562 0.839844,0 1.367187,0.546875 0.546875,0.546875 0.546875,1.425781 0,0.566406 0.234375,1.660156 0.253907,1.09375 0.253907,1.6601563 0,0.8789062 -0.546875,1.4257812 -0.527344,0.546875 -1.367188,0.546875 z"
     style="font-style:normal;font-variant:normal;font-weight:normal;font-stretch:normal;font-family:'Comic Sans MS';-inkscape-font-specification:'Comic Sans MS'"
     id="path1011"
     inkscape:connector-curvature="0" /><path
     d="m 119.16909,-8.721283 -6.75781,14.609375 q -2.5,5.332031 -3.82813,8.925781 l -1.28906,3.789063 q -0.50781,1.40625 -1.75781,1.40625 -0.82031,0 -1.42578,-0.546875 -0.58594,-0.527344 -0.58594,-1.328125 0,-1.953125 4.21875,-11.308594 l -6.99219,-13.4570312 -0.878905,-1.4257813 q -0.527343,-0.8984375 -0.527343,-1.5039062 0,-0.8007813 0.605468,-1.4062503 0.625,-0.605468 1.38672,-0.605468 0.89844,0 1.38672,0.683593 3.32031,4.6093753 7.1289,13.1250003 l 2.89063,-6.7382813 q 1.5625,-3.4960937 3.00781,-6.015625 0.625,-1.09375 1.64063,-1.09375 0.80078,0 1.40625,0.566406 0.625,0.566407 0.625,1.3476565 0,0.4296875 -0.25391,0.9765625 z"
     style="font-style:normal;font-variant:normal;font-weight:normal;font-stretch:normal;font-family:'Comic Sans MS';-inkscape-font-specification:'Comic Sans MS'"
     id="path1013"
     inkscape:connector-curvature="0" /></g></switch>
<g
   aria-label="Easy"
   style="font-style:normal;font-weight:normal;font-size:40px;line-height:1.25;font-family:sans-serif;letter-spacing:0px;word-spacing:0px;fill:#000000;fill-opacity:1;stroke:none"
   id="flowRoot837"
   transform="translate(17.845205,52.319587)"><path
     d="m 5.9648437,-30.730469 c -0.1822917,0 -0.3841146,-0.03255 -0.6054687,-0.09766 -2.2005208,-0.625 -4.3229166,-0.9375 -6.3671875,-0.9375 -1.0677083,0 -2.2330729,0.09766 -3.4960937,0.292969 -1.2630209,0.195313 -2.623698,0.494792 -4.0820313,0.898437 0.1171875,0.846355 0.1757812,1.523438 0.1757812,2.03125 0,1.809896 -0.1106771,4.296875 -0.3320312,7.460938 -0.186814,2.017158 -0.059706,1.606246 -0.2539063,4.023441 -0.052083,0.924479 -0.097656,1.803386 -0.1367187,2.636719 -0.026042,0.820313 -0.039063,1.588542 -0.039063,2.304687 0,2.8776045 0.2083333,4.570313 0.625,5.0781255 0.3125,0.3645833 1.3346354,0.546875 3.0664063,0.546875 0.8072917,0 2.0182292,-0.019531 3.6328125,-0.058594 1.62760413,-0.052083 2.8515624,-0.078125 3.6718749,-0.078125 0.2604167,0 0.6445313,-0.039063 1.1523438,-0.1171875 0.5078125,-0.091146 0.8854167,-0.1367188 1.1328125,-0.1367188 1.3802083,0 2.0703125,0.6770833 2.0703125,2.03125 0,1.09375 -0.5533854,1.7513021 -1.6601563,1.9726562 -1.2239583,0.2473959 -3.87369783,0.3710938 -7.9492187,0.3710938 -4.0364583,0 -6.627604,-0.5338542 -7.773437,-1.6015625 -1.25,-1.1588541 -1.875,-3.828125 -1.875,-8.0078127 0,-0.833333 0.01953,-1.744792 0.05859,-2.734375 0.02961,-2.243632 0.273085,-4.404708 0.3125,-5.351562 0.260417,-3.763021 0.390625,-6.542969 0.390625,-8.339844 0,-0.481771 -0.0651,-1.184896 -0.195313,-2.109375 -0.130208,-0.9375 -0.195312,-1.647135 -0.195312,-2.128906 0,-1.549479 0.651042,-2.324219 1.953125,-2.324219 0.546874,0 1.0156242,0.188802 1.4062492,0.566407 1.5625001,-0.416667 3.0338543,-0.729167 4.4140626,-0.9375 1.3932291,-0.208333 2.7018229,-0.3125 3.9257812,-0.3125 3.1640625,0 5.6901042,0.377604 7.578125,1.132812 0.8723958,0.351563 1.3085937,0.976563 1.3085937,1.875 0,0.520833 -0.1692708,0.983073 -0.5078125,1.386719 -0.3776041,0.442708 -0.8463541,0.664062 -1.40625,0.664062 z"
     style="font-style:normal;font-variant:normal;font-weight:normal;font-stretch:normal;font-family:'Comic Sans MS';-inkscape-font-specification:'Comic Sans MS'"
     id="path845"
     inkscape:connector-curvature="0"
     sodipodi:nodetypes="ccsscscccscscscsscscsccscssccscsccc" /><path
     d="m 27.15625,-3.1523438 q -0.371094,0 -1.347656,-0.8593749 Q 24.929687,-4.8125 24.5,-5.4375 q -1.875,1.015625 -3.300781,1.5234375 -1.425782,0.5273437 -2.382813,0.5273437 -4.570312,0 -6.660156,-2.5781249 -1.972656,-2.4218751 -1.972656,-7.4218753 0,-4.726562 3.242187,-8.085937 3.261719,-3.359375 7.773438,-3.359375 1.699218,0 3.808593,0.878906 2.65625,1.09375 2.65625,2.636719 0,0.527344 -0.390625,0.9375 -0.195312,0.742187 -0.3125,2.441406 -0.09766,1.699219 -0.117187,4.355469 -0.01953,2.421875 0.332031,3.8281247 0.195313,0.859375 1.230469,3.4375001 0.136719,0.3515625 0.449219,1.0351562 l 0.117187,0.3320313 q 0,0.78125 -0.546875,1.2890624 -0.546875,0.5078125 -1.269531,0.5078125 z m -4.0625,-13.5742182 q 0,-0.839844 0.09766,-1.816407 0.117188,-0.996093 0.332031,-2.109375 -0.722656,-0.371093 -1.25,-0.546875 -0.507812,-0.175781 -0.820312,-0.175781 -3.027344,0 -5.234375,2.480469 -2.1875,2.460937 -2.1875,5.683593 0,3.203125 1.132813,4.804688 1.132812,1.6015625 3.398437,1.6015625 1.875,0 3.183594,-0.6835937 0.703125,-0.3710938 1.972656,-1.4843751 -0.625,-5.1757817 -0.625,-7.7539057 z"
     style="font-style:normal;font-variant:normal;font-weight:normal;font-stretch:normal;font-family:'Comic Sans MS';-inkscape-font-specification:'Comic Sans MS'"
     id="path847"
     inkscape:connector-curvature="0" /><path
     d="m 45.554687,-19.480469 q -1.074218,0 -1.503906,-0.722656 -0.292969,-0.507812 -0.507812,-2.109375 -1.464844,0.371094 -4.511719,1.367188 -3.144531,1.25 -3.164063,3.085937 0.585938,0.214844 1.152344,0.3125 4.492188,0.800781 6.679688,2.207031 3.183593,2.050781 3.183593,5.9375002 0,3.1835938 -2.753906,4.8046876 -2.285156,1.3281249 -5.78125,1.3281249 -2.558594,0 -4.882812,-0.8593749 -3.007813,-1.09375 -3.007813,-3.046875 0,-0.78125 0.605469,-1.3671876 0.625,-0.5859375 1.40625,-0.5859375 0.605469,0 1.5625,0.9375 0.46875,0.4492188 2.109375,0.7421876 1.308594,0.234375 2.207031,0.234375 1.640625,0 2.890625,-0.390625 1.816406,-0.5664063 1.816406,-1.7968751 0,-2.6562502 -3.710937,-3.5937502 l -2.03125,-0.449219 q -2.597656,-0.566406 -3.691406,-1.328125 -1.582032,-1.09375 -1.582032,-3.300781 0,-4.082031 3.847657,-5.820312 1.171875,-0.527344 3.75,-1.25 2.578125,-0.742188 3.691406,-1.25 0.800781,-0.351563 1.738281,-0.351563 0.839844,0 1.367188,0.546875 0.546875,0.546875 0.546875,1.425782 0,0.566406 0.234375,1.660156 0.253906,1.09375 0.253906,1.660156 0,0.878906 -0.546875,1.425781 -0.527344,0.546875 -1.367188,0.546875 z"
     style="font-style:normal;font-variant:normal;font-weight:normal;font-stretch:normal;font-family:'Comic Sans MS';-inkscape-font-specification:'Comic Sans MS'"
     id="path849"
     inkscape:connector-curvature="0" /><path
     d="m 68.855469,-21.863281 -6.757813,14.6093748 q -2.5,5.3320312 -3.828125,8.9257812 l -1.289062,3.7890625 q -0.507813,1.40625 -1.757813,1.40625 -0.820312,0 -1.425781,-0.546875 -0.585938,-0.5273438 -0.585938,-1.328125 0,-1.953125 4.21875,-11.3085937 L 50.4375,-19.773437 49.558594,-21.199219 q -0.527344,-0.898437 -0.527344,-1.503906 0,-0.800781 0.605469,-1.40625 0.625,-0.605469 1.386718,-0.605469 0.898438,0 1.386719,0.683594 3.320313,4.609375 7.128906,13.125 l 2.890625,-6.738281 q 1.5625,-3.496094 3.007813,-6.015625 0.625,-1.09375 1.640625,-1.09375 0.800781,0 1.40625,0.566406 0.625,0.566406 0.625,1.347656 0,0.429688 -0.253906,0.976563 z"
     style="font-style:normal;font-variant:normal;font-weight:normal;font-stretch:normal;font-family:'Comic Sans MS';-inkscape-font-specification:'Comic Sans MS'"
     id="path851"
     inkscape:connector-curvature="0" /></g></svg>